<?xml version="1.0" standalone="no"?>
<!DOCTYPE svg PUBLIC "-//W3C//DTD SVG 20010904//EN"
 "http://www.w3.org/TR/2001/REC-SVG-20010904/DTD/svg10.dtd">
<svg version="1.0" xmlns="http://www.w3.org/2000/svg"
 width="500.000000pt" height="500.000000pt" viewBox="0 0 500.000000 500.000000"
 preserveAspectRatio="xMidYMid meet">

<g transform="translate(0.000000,500.000000) scale(0.100000,-0.100000)"
fill="#000000" stroke="none">
<path d="M0 2500 l0 -2500 2500 0 2500 0 0 2500 0 2500 -2500 0 -2500 0 0
-2500z m2512 497 c146 -53 256 -145 314 -263 20 -39 34 -80 32 -90 -2 -14 -25
-23 -98 -40 -52 -12 -98 -19 -101 -16 -4 4 -12 23 -18 43 -30 94 -148 174
-257 174 -50 0 -69 -5 -110 -30 -96 -60 -149 -181 -124 -286 22 -91 125 -179
224 -191 27 -3 32 3 82 91 29 52 57 98 62 103 9 9 187 -86 187 -100 0 -4 -38
-76 -85 -161 l-85 -153 -95 5 c-428 20 -675 422 -459 746 117 175 328 242 531
168z m1782 -3 c10 -26 7 -51 -9 -64 -25 -20 -19 -43 10 -38 20 4 25 0 30 -24
4 -16 5 -32 2 -35 -10 -9 -187 -51 -191 -44 -2 3 -10 34 -17 68 -10 48 -10 68
-1 88 16 35 57 49 96 34 26 -12 31 -11 44 9 17 26 28 28 36 6z m70 -401 c3
-42 4 -79 1 -82 -4 -3 -48 -8 -100 -11 -109 -6 -105 -9 -105 98 0 59 1 62 24
62 23 0 25 -5 28 -47 2 -28 7 -46 13 -43 6 3 9 22 7 43 -2 33 0 37 22 37 20 0
24 -6 30 -40 9 -56 26 -50 26 10 0 46 2 50 24 50 22 0 23 -5 30 -77z m-37
-268 c24 -27 29 -80 17 -156 l-6 -35 -95 12 c-52 7 -97 14 -100 17 -2 3 0 36
6 74 9 57 15 73 42 97 27 24 38 27 73 23 27 -4 49 -15 63 -32z m-819 -115 c58
-42 73 -93 46 -158 -24 -58 -71 -92 -128 -92 -104 0 -177 111 -131 199 43 85
136 107 213 51z m737 -220 c24 -20 38 -68 30 -106 -16 -89 -111 -124 -177 -66
-26 24 -31 36 -31 74 0 56 31 104 76 116 33 9 79 1 102 -18z m-967 -131 c52
-26 82 -70 82 -122 0 -69 -32 -107 -192 -231 l-87 -67 -43 22 c-24 12 -53 29
-66 37 l-23 15 75 76 c58 59 73 79 66 91 -18 28 -11 95 13 131 23 35 78 69
111 69 11 0 40 -10 64 -21z m752 -177 c0 -16 -8 -32 -20 -40 -46 -29 1 -108
49 -83 21 12 36 45 27 60 -6 9 16 21 39 21 37 0 19 -86 -26 -124 -18 -15 -43
-26 -60 -26 -37 0 -85 24 -99 49 -24 46 -3 124 42 155 33 23 48 20 48 -12z
m-281 -463 c31 -96 32 -101 15 -120 -9 -10 -22 -19 -28 -19 -16 0 -196 82
-196 89 0 3 12 14 26 25 26 18 27 18 75 -4 27 -13 51 -21 54 -18 3 3 -3 28
-14 55 l-20 50 22 22 c12 11 24 21 27 21 3 0 21 -45 39 -101z m-275 -160 c45
-35 30 -103 -31 -137 -15 -9 -15 -12 -3 -27 13 -15 12 -20 -9 -36 -13 -11 -26
-19 -30 -19 -4 0 -30 38 -58 84 l-52 85 32 20 c93 57 112 61 151 30z m-285
-209 l72 -80 -26 -12 c-21 -9 -31 -9 -46 1 -29 17 -89 -3 -89 -30 0 -18 -46
-46 -58 -35 -2 3 -1 52 3 110 7 102 8 105 33 115 15 5 30 10 33 10 3 1 39 -35
78 -79z m-324 -21 c19 -19 -10 -44 -47 -41 -39 4 -68 -17 -68 -48 0 -26 27
-50 56 -50 20 0 24 5 24 29 0 21 6 30 22 34 28 8 29 6 38 -44 8 -41 7 -41 -34
-60 -50 -23 -66 -23 -112 -4 -64 27 -81 116 -30 164 40 38 121 48 151 20z"/>
<path d="M4173 2909 c-11 -11 -6 -50 6 -48 27 3 38 16 30 37 -9 24 -19 28 -36
11z"/>
<path d="M4216 2274 c-26 -26 -20 -51 15 -58 59 -11 69 -8 69 22 0 15 -5 33
-12 40 -17 17 -54 15 -72 -4z"/>
<path d="M4136 1934 c-32 -32 -10 -74 39 -74 29 0 36 4 41 27 6 20 2 31 -16
45 -27 22 -44 23 -64 2z"/>
<path d="M3391 1007 c-8 -10 -7 -18 2 -31 10 -14 15 -15 30 -4 11 9 16 20 11
31 -7 20 -27 22 -43 4z"/>
<path d="M3100 827 c0 -28 6 -32 28 -19 9 7 8 13 -8 27 -20 18 -20 18 -20 -8z"/>
</g>
</svg>
